<svg width="15" height="18" viewBox="0 0 15 18" fill="none" xmlns="http://www.w3.org/2000/svg">
<mask id="mask0_7180_7451" style="mask-type:alpha" maskUnits="userSpaceOnUse" x="0" y="0" width="15" height="18">
<circle cx="1.49997" cy="1.49997" r="1.49997" fill="#02324F"/>
<circle cx="1.49997" cy="1.49997" r="1.49997" transform="matrix(-1 0 0 1 10.5005 11.25)" fill="#02324F"/>
<circle cx="5.25095" cy="5.24948" r="1.49997" fill="#02324F"/>
<circle cx="1.49997" cy="1.49997" r="1.49997" transform="matrix(-1 0 0 1 6.74951 15)" fill="#02324F"/>
<circle cx="8.99997" cy="8.99997" r="1.49997" fill="#02324F"/>
<circle cx="5.25095" cy="1.49997" r="1.49997" fill="#02324F"/>
<circle cx="1.49997" cy="1.49997" r="1.49997" transform="matrix(-1 0 0 1 6.74951 11.25)" fill="#02324F"/>
<circle cx="8.99997" cy="5.24948" r="1.49997" fill="#02324F"/>
<circle cx="1.49997" cy="1.49997" r="1.49997" transform="matrix(-1 0 0 1 3.00049 15)" fill="#02324F"/>
<circle cx="12.75" cy="8.99997" r="1.49997" fill="#02324F"/>
</mask>
<g mask="url(#mask0_7180_7451)">
<rect x="-5.25" y="-2.99902" width="23.2495" height="23.9995" fill="white" fill-opacity="0.3"/>
</g>
</svg>
