<svg width="60" height="60" viewBox="0 0 60 60" fill="none" xmlns="http://www.w3.org/2000/svg">
<path d="M30.0354 49.5429C27.6915 50.4061 24.715 51.5002 20.9501 52.8955C14.5207 51.9981 7.76442 49.9061 4.84353 45.1047C5.90761 42.2392 6.83495 39.7285 7.65545 37.5126C13.1596 43.8718 22.777 47.9103 30.0354 49.5429ZM31.9029 28.0957C25.6466 21.8413 17.5912 17.2215 14.3071 20.5122C13.6062 21.213 13.8177 20.7942 8.94816 34.0104C14.1404 41.5042 27.2598 46.7372 36.3986 47.1966C39.1314 46.1688 39.0673 46.1176 39.4883 45.6945C43.516 41.6666 35.9285 32.1193 31.9029 28.0957ZM37.2191 43.4252C36.9135 43.735 35.4926 43.75 32.9691 42.5042C30.2256 41.1473 27.0953 38.7819 24.1552 35.8416C17.3433 29.0295 15.7515 23.5977 16.572 22.7772C16.7002 22.649 16.9395 22.5806 17.2792 22.5806C19.1189 22.5806 23.886 24.6127 29.638 30.3629C32.5781 33.3031 34.9456 36.4335 36.3024 39.1772C37.5481 41.6965 37.5268 43.1196 37.2191 43.4252ZM15.0827 55.0729C11.3819 56.449 7.11486 58.0431 2.15981 59.9C1.87224 60.0066 1.5601 60.0285 1.26046 59.9631C0.960814 59.8976 0.686252 59.7475 0.469373 59.5306C0.252494 59.3137 0.102408 59.0391 0.0369367 58.7395C-0.0285349 58.4398 -0.00664233 58.1277 0.100015 57.8401L3.49953 48.7202C6.31573 51.9553 10.5507 53.9169 15.0827 55.0729ZM37.7533 4.21899C36.7554 4.39421 35.7917 4.55233 35.1379 4.8814C36.1208 6.38999 38.1742 8.31098 36.9199 10.8196C35.7982 13.0632 33.467 12.9308 31.4435 13.0013C32.685 14.6979 34.1208 16.418 33.014 18.6339C31.8666 20.931 28.8581 21.4075 27.0825 21.696C26.8074 21.7407 26.5257 21.6755 26.2983 21.5144C26.0708 21.3533 25.9158 21.1092 25.8667 20.8348L25.4778 18.7365C25.4523 18.5975 25.4545 18.4549 25.4843 18.3168C25.5142 18.1787 25.5711 18.0479 25.6517 17.9319C25.7324 17.8159 25.8352 17.717 25.9542 17.6409C26.0733 17.5648 26.2062 17.513 26.3453 17.4886C27.356 17.3112 28.3026 17.1574 28.9607 16.8262C27.9735 15.3283 25.9287 13.388 27.1765 10.8901C28.2961 8.65287 30.6252 8.77894 32.6529 8.70843C31.4093 7.0118 29.9756 5.29167 31.0824 3.07579C32.2298 0.78086 35.2405 0.302216 37.0118 0.0137462C37.2867 -0.0309528 37.5681 0.0343269 37.7952 0.195471C38.0223 0.356615 38.1769 0.600674 38.2255 0.87488L38.6143 2.97323C38.6411 3.11171 38.64 3.25414 38.611 3.39217C38.582 3.53021 38.5258 3.66107 38.4456 3.77709C38.3654 3.89311 38.2629 3.99196 38.144 4.06784C38.0251 4.14372 37.8923 4.19511 37.7533 4.21899ZM57.0264 21.3776L59.1247 21.7665C59.6973 21.8733 60.0798 22.4075 59.9858 22.9802C59.6973 24.7516 59.2187 27.7624 56.9239 28.9098C54.7081 30.0167 52.9881 28.5829 51.2915 27.3393C51.221 29.3671 51.347 31.6984 49.1099 32.8159C46.6121 34.0638 44.6719 32.0189 43.1741 31.0317C42.8429 31.6898 42.6891 32.6364 42.5117 33.6471C42.4875 33.7864 42.4359 33.9195 42.3599 34.0387C42.2839 34.1579 42.185 34.2608 42.069 34.3415C41.9529 34.4222 41.822 34.4791 41.6838 34.5088C41.5456 34.5385 41.4029 34.5405 41.2639 34.5147L39.1656 34.1258C38.8913 34.0767 38.6472 33.9217 38.4861 33.6942C38.325 33.4667 38.2598 33.1851 38.3045 32.9099C38.593 31.1364 39.0716 28.1278 41.3664 26.9781C43.5801 25.8713 45.3023 27.3072 46.9988 28.5487C47.0693 26.5251 46.9369 24.1918 49.1804 23.0721C51.6889 21.8178 53.6098 23.8712 55.1184 24.8542C55.4474 24.2003 55.6055 23.2366 55.7807 22.2387C55.8057 22.1002 55.8578 21.968 55.9339 21.8497C56.0101 21.7314 56.1089 21.6293 56.2247 21.5493C56.3404 21.4693 56.4708 21.4129 56.6084 21.3834C56.746 21.354 56.8881 21.352 57.0264 21.3776ZM50.6398 40.7691H46.58C46.41 40.7691 46.247 40.7016 46.1268 40.5814C46.0066 40.4611 45.939 40.2981 45.939 40.1281V38.2049C45.939 38.0349 46.0066 37.8719 46.1268 37.7517C46.247 37.6314 46.41 37.5639 46.58 37.5639H50.6398C50.8098 37.5639 50.9729 37.6314 51.0931 37.7517C51.2133 37.8719 51.2808 38.0349 51.2808 38.2049V40.1281C51.2808 40.2981 51.2133 40.4611 51.0931 40.5814C50.9729 40.7016 50.8098 40.7691 50.6398 40.7691ZM55.1013 2.88989L52.2295 5.76177C52.1093 5.88181 51.9464 5.94924 51.7765 5.94924C51.6067 5.94924 51.4437 5.88181 51.3235 5.76177L49.9646 4.40062C49.8446 4.28042 49.7771 4.11749 49.7771 3.94761C49.7771 3.77774 49.8446 3.61481 49.9646 3.49461L52.8363 0.622737C52.9565 0.50269 53.1195 0.435262 53.2893 0.435262C53.4592 0.435262 53.6221 0.50269 53.7423 0.622737L55.1013 1.98175C55.2214 2.10231 55.2889 2.26559 55.2889 2.43582C55.2889 2.60605 55.2214 2.76933 55.1013 2.88989ZM21.7941 9.78538H19.8711C19.7011 9.78538 19.538 9.71784 19.4178 9.59762C19.2976 9.4774 19.2301 9.31435 19.2301 9.14433V5.0844C19.2301 4.91438 19.2976 4.75133 19.4178 4.63111C19.538 4.51089 19.7011 4.44335 19.8711 4.44335H21.7941C21.8783 4.44335 21.9616 4.45993 22.0394 4.49215C22.1172 4.52436 22.1879 4.57158 22.2474 4.63111C22.3069 4.69064 22.3541 4.7613 22.3863 4.83908C22.4185 4.91685 22.4351 5.00021 22.4351 5.0844V9.14433C22.4351 9.22852 22.4185 9.31188 22.3863 9.38965C22.3541 9.46743 22.3069 9.53809 22.2474 9.59762C22.1879 9.65715 22.1172 9.70436 22.0394 9.73658C21.9616 9.7688 21.8783 9.78538 21.7941 9.78538ZM37.1422 24.2195L35.5396 23.1511C35.4676 23.1043 35.4058 23.0436 35.3575 22.9725C35.3093 22.9015 35.2758 22.8215 35.2589 22.7374C35.242 22.6532 35.242 22.5665 35.259 22.4823C35.2761 22.3982 35.3097 22.3182 35.358 22.2473C39.719 16.042 48.127 9.57383 57.0222 9.26186C57.1093 9.26044 57.1959 9.27635 57.2768 9.30866C57.3578 9.34096 57.4315 9.38903 57.4937 9.45006C57.5559 9.51108 57.6054 9.58386 57.6393 9.66417C57.6731 9.74447 57.6907 9.83071 57.691 9.91786V11.8431C57.691 12.185 57.4217 12.4521 57.0799 12.4671C49.6377 12.762 42.0139 18.3668 38.0032 24.0571C37.9106 24.1929 37.7678 24.2862 37.6063 24.3167C37.4448 24.3471 37.2779 24.3122 37.1422 24.2195Z" fill="#008CFF"/>
</svg>
