<svg width="265" height="239" viewBox="0 0 265 239" fill="none" xmlns="http://www.w3.org/2000/svg">
<g style="mix-blend-mode:overlay">
<path d="M26.4552 0H0.000380998V26.4547H26.4552V0Z" fill="white"/>
<path d="M52.9102 26.4547L26.4552 26.4547L26.4553 52.9094H52.9102V26.4547Z" fill="white"/>
<path d="M79.365 52.9094L52.9102 52.9094L52.9101 79.3641H79.365V52.9094Z" fill="white"/>
<path d="M105.82 79.3641L79.365 79.3641L79.365 105.819H105.82V79.3641Z" fill="white"/>
<path d="M132.275 105.819L105.82 105.819L105.82 132.274H132.275V105.819Z" fill="white"/>
<path d="M105.82 132.274H79.365V158.514H105.82L105.82 132.274Z" fill="white"/>
<path d="M79.365 158.728H52.9101V185.183H79.365V158.728Z" fill="white"/>
<path d="M52.9101 185.183L26.4553 185.183V211.638H52.9102L52.9101 185.183Z" fill="white"/>
<path d="M26.4553 211.638H0V236.443H26.4548L26.4553 211.638Z" fill="white"/>
<path d="M264.549 211.638H132.275V238.092H264.549V211.638Z" fill="white"/>
</g>
</svg>
